<svg width="814.375" height="1373" version="1.1" baseProfile="full" viewbox="0 0 814.375 1373" xmlns="http://www.w3.org/2000/svg" xmlns:xlink="http://www.w3.org/1999/xlink" xmlns:ev="http://www.w3.org/2001/xml-events" style="font-weight:bold; font-size:12pt; font-family:'Calibri', Helvetica, sans-serif;;stroke-width:3;stroke-linejoin:round;stroke-linecap:round"><path d="M298.9 34.2 L140.8 64.5 L140.8 235 L140.8 235 L140.8 405.5 L140.8 405.5 L140.8 469.5 L140.8 469.5 L140.8 533.5 L140.8 533.5 L140.8 732.5 L140.8 732.5 L140.8 931.5 L140.8 931.5 L142.5 951.5 L142.5 951.5 " style="stroke:#33322E;fill:none;stroke-dasharray:none;"></path>
<path d="M136 938.7 L141.9 944.9 L146.7 937.7 L142.5 951.5 Z" style="stroke:#33322E;fill:#33322E;stroke-dasharray:none;"></path>
<path d="M286.8 41.9 L292.3 35.4 L284.8 31.5 L298.9 34.2 Z" style="stroke:#33322E;fill:#33322E;stroke-dasharray:none;"></path>
<path d="M352.9 34.6 L497.9 64.5 L497.9 84.5 L497.9 84.5 " style="stroke:#33322E;fill:none;stroke-dasharray:6 6;"></path>
<path d="M492.5 71.2 L497.9 71.2 L503.2 71.2 L497.9 84.5 Z" style="stroke:#33322E;fill:#eee8d5;stroke-dasharray:none;"></path>
<path d="M367 32 L365.9 37.3 L364.9 42.5 L352.9 34.6 Z" style="stroke:#33322E;fill:#eee8d5;stroke-dasharray:none;"></path>
<path d="M497.9 385.5 L497.9 405.5 L497.9 425.5 L497.9 425.5 " style="stroke:#33322E;fill:none;stroke-dasharray:6 6;"></path>
<path d="M492.5 412.2 L497.9 412.2 L503.2 412.2 L497.9 425.5 Z" style="stroke:#33322E;fill:#eee8d5;stroke-dasharray:none;"></path>
<path d="M503.2 398.8 L497.9 398.8 L492.5 398.8 L497.9 385.5 Z" style="stroke:#33322E;fill:#eee8d5;stroke-dasharray:none;"></path>
<path d="M497.9 513.5 L497.9 533.5 L497.9 553.5 L497.9 553.5 " style="stroke:#33322E;fill:none;stroke-dasharray:none;"></path>
<path d="M492.5 540.2 L497.9 546.8 L503.2 540.2 L497.9 553.5 Z" style="stroke:#33322E;fill:#33322E;stroke-dasharray:none;"></path>
<path d="M503.2 526.8 L497.9 520.2 L492.5 526.8 L497.9 513.5 Z" style="stroke:#33322E;fill:#33322E;stroke-dasharray:none;"></path>
<path d="M349.3 911.5 L332.8 931.5 L308 963.8 L308 963.8 " style="stroke:#33322E;fill:none;stroke-dasharray:none;"></path>
<path d="M311.9 950 L312.1 958.5 L320.3 956.5 L308 963.8 Z" style="stroke:#33322E;fill:#33322E;stroke-dasharray:none;"></path>
<path d="M344.9 925.2 L345.1 916.6 L336.7 918.4 L349.3 911.5 Z" style="stroke:#33322E;fill:#33322E;stroke-dasharray:none;"></path>
<path d="M515.9 911.5 L517.9 931.5 L517.9 1083.5 L517.9 1083.5 " style="stroke:#33322E;fill:none;stroke-dasharray:none;"></path>
<path d="M512.5 1070.2 L517.9 1076.8 L523.2 1070.2 L517.9 1083.5 Z" style="stroke:#33322E;fill:#33322E;stroke-dasharray:none;"></path>
<path d="M522.5 924.2 L516.5 918.1 L511.9 925.3 L515.9 911.5 Z" style="stroke:#33322E;fill:#33322E;stroke-dasharray:none;"></path>
<rect x="13.5" y="951.5" height="409" width="294.5" style="stroke:#33322E;fill:#eee8d5;stroke-dasharray:none;"></rect>
<text x="160.8" y="973" style="text-anchor: middle;">weID-Extension</text>
<path d="M13.5 982.5 L308 982.5" style="stroke:#33322E;fill:none;stroke-dasharray:none;"></path>
<path d="M166.1 1087.5 L142.5 1107.5 L142.5 1127.5 L142.5 1127.5 " style="stroke:#33322E;fill:none;stroke-dasharray:none;"></path>
<path d="M137.2 1114.2 L142.5 1120.8 L147.8 1114.2 L142.5 1127.5 Z" style="stroke:#33322E;fill:#33322E;stroke-dasharray:none;"></path>
<path d="M142.5 1215.5 L142.5 1235.5 L166.1 1255.5 L166.1 1255.5 " style="stroke:#33322E;fill:none;stroke-dasharray:none;"></path>
<path d="M152.5 1251 L161 1251.2 L159.4 1242.8 L166.1 1255.5 Z" style="stroke:#33322E;fill:#33322E;stroke-dasharray:none;"></path>
<path d="M274.9 1255.5 L298.5 1235.5 L298.5 1171.5 L298.5 1171.5 L298.5 1107.5 L298.5 1107.5 L274.9 1087.5 L274.9 1087.5 " style="stroke:#33322E;fill:none;stroke-dasharray:none;"></path>
<path d="M288.5 1092 L280 1091.8 L281.6 1100.2 L274.9 1087.5 Z" style="stroke:#33322E;fill:#33322E;stroke-dasharray:none;"></path>
<rect x="42.5" y="1003.5" height="77" width="64" style="stroke:#33322E;fill:#fdf6e3;stroke-dasharray:none;"></rect>
<text x="74.5" y="1025" style="text-anchor: middle;">tools</text>
<path d="M42.5 1034.5 L106.5 1034.5" style="stroke:#33322E;fill:none;stroke-dasharray:none;"></path>
<text x="50.5" y="1056" style="font-weight:normal;">react</text>
<text x="50.5" y="1071" style="font-weight:normal;">redux</text>
<rect x="146.5" y="995.5" height="92" width="149" style="stroke:#33322E;fill:#fdf6e3;stroke-dasharray:none;"></rect>
<text x="221" y="1017" style="text-anchor: middle;">components</text>
<path d="M146.5 1026.5 L295.5 1026.5" style="stroke:#33322E;fill:none;stroke-dasharray:none;"></path>
<text x="154.5" y="1048" style="font-weight:normal;">app</text>
<text x="154.5" y="1063" style="font-weight:normal;">account-detail</text>
<text x="154.5" y="1078" style="font-weight:normal;">accounts</text>
<rect x="165.5" y="1255.5" height="92" width="111" style="stroke:#33322E;fill:#fdf6e3;stroke-dasharray:none;"></rect>
<text x="221" y="1277" style="text-anchor: middle;">reducers</text>
<path d="M165.5 1286.5 L276.5 1286.5" style="stroke:#33322E;fill:none;stroke-dasharray:none;"></path>
<text x="173.5" y="1308" style="font-weight:normal;">app</text>
<text x="173.5" y="1323" style="font-weight:normal;">weId</text>
<text x="173.5" y="1338" style="font-weight:normal;">identities</text>
<rect x="26.5" y="1127.5" height="88" width="232" style="stroke:#33322E;fill:#fdf6e3;stroke-dasharray:none;"></rect>
<text x="142.5" y="1149" style="text-anchor: middle;">actions</text>
<path d="M26.5 1158.5 L258.5 1158.5" style="stroke:#33322E;fill:none;stroke-dasharray:none;"></path>
<rect x="39.5" y="1171.5" height="31" width="206" style="stroke:#33322E;fill:#eee8d5;stroke-dasharray:none;"></rect>
<text x="142.5" y="1193" style="text-anchor: middle;">backgroundConnection</text>
<rect x="410.5" y="84.5" height="301" width="175" style="stroke:#33322E;fill:#eee8d5;stroke-dasharray:none;"></rect>
<text x="498" y="106" style="text-anchor: middle;">web dapp</text>
<path d="M410.5 115.5 L585.5 115.5" style="stroke:#33322E;fill:none;stroke-dasharray:none;"></path>
<path d="M498 159.5 L498 179.5 L498 199.5 L498 199.5 " style="stroke:#33322E;fill:none;stroke-dasharray:none;"></path>
<path d="M492.7 186.2 L498 192.8 L503.3 186.2 L498 199.5 Z" style="stroke:#33322E;fill:#33322E;stroke-dasharray:none;"></path>
<path d="M498 230.5 L498 250.5 L498 270.5 L498 270.5 " style="stroke:#33322E;fill:none;stroke-dasharray:none;"></path>
<path d="M492.7 257.2 L498 263.8 L503.3 257.2 L498 270.5 Z" style="stroke:#33322E;fill:#33322E;stroke-dasharray:none;"></path>
<path d="M503.3 243.8 L498 237.2 L492.7 243.8 L498 230.5 Z" style="stroke:#33322E;fill:#33322E;stroke-dasharray:none;"></path>
<path d="M498 301.5 L498 321.5 L498 341.5 L498 341.5 " style="stroke:#33322E;fill:none;stroke-dasharray:none;"></path>
<path d="M492.7 328.2 L498 334.8 L503.3 328.2 L498 341.5 Z" style="stroke:#33322E;fill:#33322E;stroke-dasharray:none;"></path>
<path d="M503.3 314.8 L498 308.2 L492.7 314.8 L498 301.5 Z" style="stroke:#33322E;fill:#33322E;stroke-dasharray:none;"></path>
<rect x="456.5" y="199.5" height="31" width="83" style="stroke:#33322E;fill:#fdf6e3;stroke-dasharray:none;"></rect>
<text x="498" y="221" style="text-anchor: middle;">ui code</text>
<rect x="471.5" y="270.5" height="31" width="54" style="stroke:#33322E;fill:#fdf6e3;stroke-dasharray:none;"></rect>
<text x="498.5" y="292" style="text-anchor: middle;">weID</text>
<rect x="423.5" y="341.5" height="31" width="149" style="stroke:#33322E;fill:#fdf6e3;stroke-dasharray:none;"></rect>
<text x="498" y="363" style="text-anchor: middle;">weID-inpage.js</text>
<circle r="4" cx="498" cy="126.5" style="stroke:#33322E;fill:#fdf6e3;stroke-dasharray:none;"></circle>
<path d="M498 130.5 L498 138.5" style="stroke:#33322E;fill:none;stroke-dasharray:none;"></path>
<path d="M494 134.5 L502 134.5" style="stroke:#33322E;fill:none;stroke-dasharray:none;"></path>
<path d="M494 142.5 L498 138.5 L502 142.5" style="stroke:#33322E;fill:none;stroke-dasharray:none;"></path>
<text x="498.5" y="156" style="font-weight:normal;text-anchor: middle;">ui developer</text>
<rect x="193.5" y="553.5" height="358" width="608" style="stroke:#33322E;fill:#eee8d5;stroke-dasharray:none;"></rect>
<text x="497.5" y="575" style="text-anchor: middle;">weID-background</text>
<path d="M193.5 584.5 L801.5 584.5" style="stroke:#33322E;fill:none;stroke-dasharray:none;"></path>
<path d="M534.9 628.5 L583.3 648.5 L583.3 668.5 L583.3 668.5 " style="stroke:#33322E;fill:none;stroke-dasharray:none;"></path>
<path d="M577.9 655.2 L583.3 661.8 L588.6 655.2 L583.3 668.5 Z" style="stroke:#33322E;fill:#33322E;stroke-dasharray:none;"></path>
<path d="M549.3 628.7 L541.1 631.1 L545.2 638.5 L534.9 628.5 Z" style="stroke:#33322E;fill:#33322E;stroke-dasharray:none;"></path>
<path d="M583.3 699.5 L583.3 719.5 L583.3 739.5 L583.3 739.5 " style="stroke:#33322E;fill:none;stroke-dasharray:none;"></path>
<path d="M577.9 726.2 L583.3 732.8 L588.6 726.2 L583.3 739.5 Z" style="stroke:#33322E;fill:#33322E;stroke-dasharray:none;"></path>
<path d="M588.6 712.8 L583.3 706.2 L577.9 712.8 L583.3 699.5 Z" style="stroke:#33322E;fill:#33322E;stroke-dasharray:none;"></path>
<path d="M460.1 628.5 L411.8 648.5 L411.8 684 L411.8 684 L411.8 719.5 L411.8 719.5 L411.8 755 L411.8 755 L411.8 790.5 L411.8 790.5 L438.5 810.5 L438.5 810.5 " style="stroke:#33322E;fill:none;stroke-dasharray:none;"></path>
<path d="M449.8 638.5 L453.9 631.1 L445.7 628.7 L460.1 628.5 Z" style="stroke:#33322E;fill:#33322E;stroke-dasharray:none;"></path>
<path d="M583.3 770.5 L583.3 790.5 L556.5 810.5 L556.5 810.5 " style="stroke:#33322E;fill:none;stroke-dasharray:none;"></path>
<path d="M563.9 798.3 L561.8 806.5 L570.3 806.8 L556.5 810.5 Z" style="stroke:#33322E;fill:#33322E;stroke-dasharray:none;"></path>
<path d="M588.6 783.8 L583.3 777.2 L577.9 783.8 L583.3 770.5 Z" style="stroke:#33322E;fill:#33322E;stroke-dasharray:none;"></path>
<rect x="206.5" y="810.5" height="88" width="582" style="stroke:#33322E;fill:#fdf6e3;stroke-dasharray:none;"></rect>
<text x="497.5" y="832" style="text-anchor: middle;">config manager</text>
<path d="M206.5 841.5 L788.5 841.5" style="stroke:#33322E;fill:none;stroke-dasharray:none;"></path>
<rect x="219.5" y="854.5" height="31" width="178" style="stroke:#33322E;fill:#eee8d5;stroke-dasharray:none;"></rect>
<text x="308.5" y="876" style="text-anchor: middle;">rpc configuration</text>
<rect x="437.5" y="854.5" height="31" width="149" style="stroke:#33322E;fill:#eee8d5;stroke-dasharray:none;"></rect>
<text x="512" y="876" style="text-anchor: middle;">encrypted keys</text>
<rect x="626.5" y="854.5" height="31" width="149" style="stroke:#33322E;fill:#eee8d5;stroke-dasharray:none;"></rect>
<text x="701" y="876" style="text-anchor: middle;">weID nicknames</text>
<rect x="418.5" y="597.5" height="31" width="159" style="stroke:#33322E;fill:#fdf6e3;stroke-dasharray:none;"></rect>
<text x="498" y="619" style="text-anchor: middle;">provider-engine</text>
<rect x="465.5" y="668.5" height="31" width="235" style="stroke:#33322E;fill:#fdf6e3;stroke-dasharray:none;"></rect>
<text x="583" y="690" style="text-anchor: middle;">hooked weID subprovider</text>
<rect x="451.5" y="739.5" height="31" width="263" style="stroke:#33322E;fill:#fdf6e3;stroke-dasharray:none;"></rect>
<text x="583" y="761" style="text-anchor: middle;">weID &amp; Certification store</text>
<rect x="267.5" y="425.5" height="88" width="460" style="stroke:#33322E;fill:#eee8d5;stroke-dasharray:none;"></rect>
<text x="497.5" y="447" style="text-anchor: middle;">weID-contentscript</text>
<path d="M267.5 456.5 L727.5 456.5" style="stroke:#33322E;fill:none;stroke-dasharray:none;"></path>
<rect x="280.5" y="469.5" height="31" width="235" style="stroke:#33322E;fill:#fdf6e3;stroke-dasharray:none;"></rect>
<text x="398" y="491" style="text-anchor: middle;">plugin restart detector</text>
<rect x="555.5" y="469.5" height="31" width="159" style="stroke:#33322E;fill:#fdf6e3;stroke-dasharray:none;"></rect>
<text x="635" y="491" style="text-anchor: middle;">rpc passthrough</text>
<rect x="374.5" y="1083.5" height="145" width="286" style="stroke:#33322E;fill:#eee8d5;stroke-dasharray:none;"></rect>
<text x="517.5" y="1105" style="text-anchor: middle;">rpc</text>
<path d="M374.5 1114.5 L660.5 1114.5" style="stroke:#33322E;fill:none;stroke-dasharray:none;"></path>
<rect x="387.5" y="1127.5" height="88" width="260" style="stroke:#33322E;fill:#fdf6e3;stroke-dasharray:none;"></rect>
<text x="517.5" y="1149" style="text-anchor: middle;">FISCO blockchain</text>
<path d="M387.5 1158.5 L647.5 1158.5" style="stroke:#33322E;fill:none;stroke-dasharray:none;"></path>
<rect x="400.5" y="1171.5" height="31" width="102" style="stroke:#33322E;fill:#eee8d5;stroke-dasharray:none;"></rect>
<text x="451.5" y="1193" style="text-anchor: middle;">contracts</text>
<rect x="542.5" y="1171.5" height="31" width="92" style="stroke:#33322E;fill:#eee8d5;stroke-dasharray:none;"></rect>
<text x="588.5" y="1193" style="text-anchor: middle;">accounts</text>
<circle r="4" cx="325.9" cy="11.5" style="stroke:#33322E;fill:#eee8d5;stroke-dasharray:none;"></circle>
<path d="M325.9 15.5 L325.9 23.5" style="stroke:#33322E;fill:none;stroke-dasharray:none;"></path>
<path d="M321.9 19.5 L329.9 19.5" style="stroke:#33322E;fill:none;stroke-dasharray:none;"></path>
<path d="M321.9 27.5 L325.9 23.5 L329.9 27.5" style="stroke:#33322E;fill:none;stroke-dasharray:none;"></path>
<text x="325.5" y="41" style="font-weight:normal;text-anchor: middle;">user</text></svg>